<?xml version="1.0" encoding="UTF-8" standalone="no"?>
<!-- Created with Inkscape (http://www.inkscape.org/) -->

<svg
   width="242.36751"
   height="210.10931"
   viewBox="0 0 64.126401 55.591421"
   version="1.1"
   id="svg5"
   xml:space="preserve"
   xmlns:inkscape="http://www.inkscape.org/namespaces/inkscape"
   xmlns:sodipodi="http://sodipodi.sourceforge.net/DTD/sodipodi-0.dtd"
   xmlns="http://www.w3.org/2000/svg"
   xmlns:svg="http://www.w3.org/2000/svg"><sodipodi:namedview
     id="namedview7"
     pagecolor="#ffffff"
     bordercolor="#666666"
     borderopacity="1.0"
     inkscape:showpageshadow="2"
     inkscape:pageopacity="0.0"
     inkscape:pagecheckerboard="0"
     inkscape:deskcolor="#d1d1d1"
     inkscape:document-units="mm"
     showgrid="false" /><defs
     id="defs2" /><g
     inkscape:groupmode="layer"
     id="layer3"
     inkscape:label="Layer 1"
     transform="translate(-22.072026,-41.577718)"><ellipse
       style="display:inline;fill:#de9e36;fill-opacity:1;stroke-width:0.22679"
       id="path806"
       cx="54.135227"
       cy="88.483994"
       rx="32.063202"
       ry="8.6851444"
       inkscape:export-filename="travel.svg"
       inkscape:export-xdpi="43.542854"
       inkscape:export-ydpi="43.542854" /><g
       id="g5218"
       transform="matrix(0.90758961,0,0,0.90758961,9.5457239,4.7134784)"><g
         id="g3705"><path
           style="fill:#00ad00;fill-opacity:1;stroke:none;stroke-width:0.264583px;stroke-linecap:butt;stroke-linejoin:miter;stroke-opacity:1"
           d="m 15.672441,65.040631 0.522415,5.615958 1.167511,3.513172 1.813285,3.073829 1.382544,0.843603 2.174766,0.383889 -1.052752,-3.76578 -2.220262,-3.918109 -0.653019,-7.183202 -1.567244,-4.96294 z"
           id="path3377"
           sodipodi:nodetypes="ccccccccccc" /><path
           style="fill:#5eec5e;fill-opacity:1;stroke:none;stroke-width:0.264583px;stroke-linecap:butt;stroke-linejoin:miter;stroke-opacity:1"
           d="m 18.752152,68.582773 0.244683,-9.824924 2.683375,-2.990078 1.436641,6.13837 -0.130604,3.918112 -0.914226,3.265093 1.567244,5.615956 -0.686067,3.957044 -2.579025,-3.304024 z"
           id="path3379"
           sodipodi:nodetypes="cccccccccc" /><path
           style="fill:#008000;fill-opacity:1;stroke:none;stroke-width:0.264583px;stroke-linecap:butt;stroke-linejoin:miter;stroke-opacity:1"
           d="m 21.810814,59.032862 3.526299,-6.399581 0.522415,5.746562 -1.697848,12.146143 -0.138526,8.237992 -1.742664,-0.277052 -1.645109,-12.793277 z"
           id="path3387"
           sodipodi:nodetypes="cccccccc" /><path
           style="fill:#5eec5e;fill-opacity:1;stroke:none;stroke-width:0.264583px;stroke-linecap:butt;stroke-linejoin:miter;stroke-opacity:1"
           d="m 28.340997,77.578584 1.650994,-0.390452 0.699874,-8.621201 2.511119,-6.053265 -0.02965,-5.048048 -2.823708,2.388439 -1.486215,4.664159 -1.306036,5.093544 1.306036,5.354749 z"
           id="path3381"
           sodipodi:nodetypes="cccccccccc" /><path
           style="fill:#00ad00;fill-opacity:1;stroke:none;stroke-width:0.264583px;stroke-linecap:butt;stroke-linejoin:miter;stroke-opacity:1"
           d="m 23.746102,78.301545 2.404964,0.969683 -0.944556,-10.965507 -0.905624,-3.162777 -1.967657,-2.583782 -0.251927,3.56455 0.213674,6.020896 z"
           id="path3383"
           sodipodi:nodetypes="cccccccc" /><path
           style="fill:#5eec5e;fill-opacity:1;stroke:none;stroke-width:0.264583px;stroke-linecap:butt;stroke-linejoin:miter;stroke-opacity:1"
           d="m 24.030396,66.569622 2.090339,-6.361328 1.828451,4.832337 0.522414,3.26509 v 4.440526 l -1.236773,5.53289 -2.158921,-0.308742 z"
           id="path3385"
           sodipodi:nodetypes="cccccccc" /><path
           style="fill:#00ad00;fill-opacity:1;stroke:none;stroke-width:0.264583px;stroke-linecap:butt;stroke-linejoin:miter;stroke-opacity:1"
           d="m 27.426771,54.200525 3.265094,9.664673 -0.783622,8.881049 -1.175435,4.832337 -2.220262,0.522415 -0.569269,-10.95463 z"
           id="path3389"
           sodipodi:nodetypes="ccccccc" /><path
           style="fill:#008000;stroke:none;stroke-width:0.264583px;stroke-linecap:butt;stroke-linejoin:miter;stroke-opacity:1"
           d="m 28.424745,71.68105 4.462934,-6.648341 -0.08783,3.428063 -0.801271,4.118658 -2.053445,3.311266 -1.565887,2.067253 -1.959733,0.428704 z"
           id="path3391"
           sodipodi:nodetypes="cccccccc" /><path
           style="fill:#a05a2c;stroke:none;stroke-width:0.264583px;stroke-linecap:butt;stroke-linejoin:miter;stroke-opacity:1"
           d="m 18.676326,77.709188 0.20711,5.032203 0.86805,2.896368 1.083081,1.505903 2.060689,0.515171 6.551913,-3.656902 0.461074,-2.766446 0.315305,-4.471533 -2.92738,0.945236 -3.91811,0.130603 -2.220263,-0.261207 -2.435294,-0.782942 z"
           id="path3319"
           sodipodi:nodetypes="ccccccccccccc" /></g><path
         style="fill:#c8b7b7;stroke:none;stroke-width:0.264583px;stroke-linecap:butt;stroke-linejoin:miter;stroke-opacity:1"
         d="m 52.845512,73.138058 0.17958,8.489241 6.00777,0.391811 0.130603,-8.472916 z"
         id="path3303"
         sodipodi:nodetypes="ccccc" /><path
         style="fill:#e3dbdb;stroke:none;stroke-width:0.264583px;stroke-linecap:butt;stroke-linejoin:miter;stroke-opacity:1"
         d="m 61.791863,73.644147 0.244885,8.505566 -3.13449,-0.39181 0.17958,-8.228035 z"
         id="path3307"
         sodipodi:nodetypes="ccccc" /><path
         style="fill:#b3b3b3;stroke:none;stroke-width:0.264583px;stroke-linecap:butt;stroke-linejoin:miter;stroke-opacity:1"
         d="M 38.528085,42.054383 39.050499,72.48504 71.962626,74.574698 71.701418,42.5768 Z"
         id="path3293" /><path
         style="fill:#9bc0c0;fill-opacity:1;stroke:none;stroke-width:0.264583px;stroke-linecap:butt;stroke-linejoin:miter;stroke-opacity:1"
         d="m 41.53989,45.240251 0.353559,24.520675 26.8609,1.12926 -0.308742,-25.041733 z"
         id="path3291"
         sodipodi:nodetypes="ccccc" /><path
         style="fill:#808080;stroke:none;stroke-width:0.264583px;stroke-linecap:butt;stroke-linejoin:miter;stroke-opacity:1"
         d="m 38.560736,42.054383 3.493647,-1.43664 33.555865,0.684028 -4.039433,1.275029 z"
         id="path3295"
         sodipodi:nodetypes="ccccc" /><path
         style="fill:#e6e6e6;stroke:none;stroke-width:0.264583px;stroke-linecap:butt;stroke-linejoin:miter;stroke-opacity:1"
         d="m 71.663166,42.538547 0.230197,32.043393 3.347481,-2.342941 0.391132,-30.875207 z"
         id="path3297"
         sodipodi:nodetypes="ccccc" /><path
         style="fill:#b3b3b3;stroke:none;stroke-width:0.264583px;stroke-linecap:butt;stroke-linejoin:miter;stroke-opacity:1"
         d="M 35.132388,80.190656 20.635381,88.41869 64.387613,92.467402 78.100999,82.933335 Z"
         id="path3309" /><path
         style="fill:#e6e6e6;stroke:none;stroke-width:0.264583px;stroke-linecap:butt;stroke-linejoin:miter;stroke-opacity:1"
         d="m 78.008648,82.91749 0.184021,6.276219 -12.923482,5.624561 -0.979526,-2.44882 z"
         id="path3311"
         sodipodi:nodetypes="ccccc" /><path
         style="fill:#666666;stroke:none;stroke-width:0.264583px;stroke-linecap:butt;stroke-linejoin:miter;stroke-opacity:1"
         d="m 64.354961,92.4021 0.881575,2.41617 -44.053613,-4.12658 -0.598922,-2.358788 z"
         id="path3313"
         sodipodi:nodetypes="ccccc" /><path
         style="fill:#916f6f;stroke:none;stroke-width:0.264583px;stroke-linecap:butt;stroke-linejoin:miter;stroke-opacity:1"
         d="m 35.493869,81.231409 -1.451126,1.143743 3.203074,0.26913 1.321881,-1.13718 z"
         id="path3315"
         sodipodi:nodetypes="ccccc" /><path
         style="fill:#916f6f;stroke:none;stroke-width:0.264583px;stroke-linecap:butt;stroke-linejoin:miter;stroke-opacity:1"
         d="m 39.926236,81.578073 -1.451126,1.143743 3.203074,0.26913 1.321881,-1.13718 z"
         id="path3315-9"
         sodipodi:nodetypes="ccccc" /><path
         style="fill:#916f6f;stroke:none;stroke-width:0.264583px;stroke-linecap:butt;stroke-linejoin:miter;stroke-opacity:1"
         d="m 44.959586,81.958845 -1.451126,1.143743 3.203074,0.26913 1.321881,-1.13718 z"
         id="path3315-3"
         sodipodi:nodetypes="ccccc" /><path
         style="fill:#916f6f;stroke:none;stroke-width:0.264583px;stroke-linecap:butt;stroke-linejoin:miter;stroke-opacity:1"
         d="m 49.946057,82.305509 -1.451126,1.143743 3.203074,0.26913 1.321881,-1.13718 z"
         id="path3315-9-8"
         sodipodi:nodetypes="ccccc" /><path
         style="fill:#916f6f;stroke:none;stroke-width:0.264583px;stroke-linecap:butt;stroke-linejoin:miter;stroke-opacity:1"
         d="m 54.979759,82.726424 -1.451126,1.143743 3.203074,0.26913 1.321881,-1.13718 z"
         id="path3315-5"
         sodipodi:nodetypes="ccccc" /><path
         style="fill:#916f6f;stroke:none;stroke-width:0.264583px;stroke-linecap:butt;stroke-linejoin:miter;stroke-opacity:1"
         d="m 59.781529,83.073088 -1.451126,1.143743 3.203074,0.26913 1.321881,-1.13718 z"
         id="path3315-9-3"
         sodipodi:nodetypes="ccccc" /><path
         style="fill:#916f6f;stroke:none;stroke-width:0.264583px;stroke-linecap:butt;stroke-linejoin:miter;stroke-opacity:1"
         d="m 64.122248,83.407685 -1.451126,1.143743 3.203074,0.26913 1.321881,-1.13718 z"
         id="path3315-3-9"
         sodipodi:nodetypes="ccccc" /><path
         style="fill:#916f6f;stroke:none;stroke-width:0.264583px;stroke-linecap:butt;stroke-linejoin:miter;stroke-opacity:1"
         d="m 68.554615,83.754349 -1.451126,1.143743 3.203074,0.26913 1.321881,-1.13718 z"
         id="path3315-9-8-7"
         sodipodi:nodetypes="ccccc" /><path
         style="fill:#916f6f;stroke:none;stroke-width:0.264583px;stroke-linecap:butt;stroke-linejoin:miter;stroke-opacity:1"
         d="m 31.153326,85.349719 -1.451126,1.143743 3.203074,0.26913 1.321881,-1.13718 z"
         id="path3315-6"
         sodipodi:nodetypes="ccccc" /><path
         style="fill:#916f6f;stroke:none;stroke-width:0.264583px;stroke-linecap:butt;stroke-linejoin:miter;stroke-opacity:1"
         d="m 35.585693,85.696383 -1.451126,1.143743 3.203074,0.26913 1.321881,-1.13718 z"
         id="path3315-9-83"
         sodipodi:nodetypes="ccccc" /><path
         style="fill:#916f6f;stroke:none;stroke-width:0.264583px;stroke-linecap:butt;stroke-linejoin:miter;stroke-opacity:1"
         d="m 40.619043,86.077155 -1.451126,1.143743 3.203074,0.26913 1.321881,-1.13718 z"
         id="path3315-3-0"
         sodipodi:nodetypes="ccccc" /><path
         style="fill:#916f6f;stroke:none;stroke-width:0.264583px;stroke-linecap:butt;stroke-linejoin:miter;stroke-opacity:1"
         d="m 45.605514,86.423819 -1.451126,1.143743 3.203074,0.26913 1.321881,-1.13718 z"
         id="path3315-9-8-9"
         sodipodi:nodetypes="ccccc" /><path
         style="fill:#916f6f;stroke:none;stroke-width:0.264583px;stroke-linecap:butt;stroke-linejoin:miter;stroke-opacity:1"
         d="m 50.639216,86.844734 -1.451126,1.143743 3.203074,0.26913 1.321881,-1.13718 z"
         id="path3315-5-2"
         sodipodi:nodetypes="ccccc" /><path
         style="fill:#916f6f;stroke:none;stroke-width:0.264583px;stroke-linecap:butt;stroke-linejoin:miter;stroke-opacity:1"
         d="m 55.440986,87.191398 -1.451126,1.143743 3.203074,0.26913 1.321881,-1.13718 z"
         id="path3315-9-3-7"
         sodipodi:nodetypes="ccccc" /><path
         style="fill:#916f6f;stroke:none;stroke-width:0.264583px;stroke-linecap:butt;stroke-linejoin:miter;stroke-opacity:1"
         d="m 59.781705,87.525995 -1.451126,1.143743 3.203074,0.26913 1.321881,-1.13718 z"
         id="path3315-3-9-6"
         sodipodi:nodetypes="ccccc" /><path
         style="fill:#916f6f;stroke:none;stroke-width:0.264583px;stroke-linecap:butt;stroke-linejoin:miter;stroke-opacity:1"
         d="m 64.214072,87.872659 -1.451126,1.143743 3.203074,0.26913 1.321881,-1.13718 z"
         id="path3315-9-8-7-7"
         sodipodi:nodetypes="ccccc" /><path
         style="fill:#916f6f;stroke:none;stroke-width:0.264583px;stroke-linecap:butt;stroke-linejoin:miter;stroke-opacity:1"
         d="m 31.476554,83.087126 -1.451126,1.143743 3.203074,0.26913 1.321881,-1.13718 z"
         id="path3315-2"
         sodipodi:nodetypes="ccccc" /><path
         style="fill:#916f6f;stroke:none;stroke-width:0.264583px;stroke-linecap:butt;stroke-linejoin:miter;stroke-opacity:1"
         d="m 35.908921,83.43379 -1.451126,1.143743 3.203074,0.26913 1.321881,-1.13718 z"
         id="path3315-9-5"
         sodipodi:nodetypes="ccccc" /><path
         style="fill:#916f6f;stroke:none;stroke-width:0.264583px;stroke-linecap:butt;stroke-linejoin:miter;stroke-opacity:1"
         d="m 40.942271,83.814562 -1.451126,1.143743 3.203074,0.26913 1.321881,-1.13718 z"
         id="path3315-3-1"
         sodipodi:nodetypes="ccccc" /><path
         style="fill:#916f6f;stroke:none;stroke-width:0.264583px;stroke-linecap:butt;stroke-linejoin:miter;stroke-opacity:1"
         d="m 45.928742,84.161226 -1.451126,1.143743 3.203074,0.26913 1.321881,-1.13718 z"
         id="path3315-9-8-2"
         sodipodi:nodetypes="ccccc" /><path
         style="fill:#916f6f;stroke:none;stroke-width:0.264583px;stroke-linecap:butt;stroke-linejoin:miter;stroke-opacity:1"
         d="m 50.962444,84.582141 -1.451126,1.143743 3.203074,0.26913 1.321881,-1.13718 z"
         id="path3315-5-7"
         sodipodi:nodetypes="ccccc" /><path
         style="fill:#916f6f;stroke:none;stroke-width:0.264583px;stroke-linecap:butt;stroke-linejoin:miter;stroke-opacity:1"
         d="m 55.764214,84.928805 -1.451126,1.143743 3.203074,0.26913 1.321881,-1.13718 z"
         id="path3315-9-3-0"
         sodipodi:nodetypes="ccccc" /><path
         style="fill:#916f6f;stroke:none;stroke-width:0.264583px;stroke-linecap:butt;stroke-linejoin:miter;stroke-opacity:1"
         d="m 60.104933,85.263402 -1.451126,1.143743 3.203074,0.26913 1.321881,-1.13718 z"
         id="path3315-3-9-0"
         sodipodi:nodetypes="ccccc" /><path
         style="fill:#916f6f;stroke:none;stroke-width:0.264583px;stroke-linecap:butt;stroke-linejoin:miter;stroke-opacity:1"
         d="m 64.5373,85.610066 -1.451126,1.143743 3.203074,0.26913 1.321881,-1.13718 z"
         id="path3315-9-8-7-8"
         sodipodi:nodetypes="ccccc" /><path
         style="fill:#916f6f;stroke:none;stroke-width:0.264583px;stroke-linecap:butt;stroke-linejoin:miter;stroke-opacity:1"
         d="m 68.970546,85.918559 -1.451126,1.143743 3.203074,0.26913 1.321881,-1.13718 z"
         id="path3315-9-8-7-8-5"
         sodipodi:nodetypes="ccccc" /><path
         style="fill:#ac9393;stroke:none;stroke-width:0.264583px;stroke-linecap:butt;stroke-linejoin:miter;stroke-opacity:1"
         d="m 38.276159,87.95037 -1.576525,1.121338 12.929764,0.914226 1.543476,-1.028985 z"
         id="path3317"
         sodipodi:nodetypes="ccccc" /></g></g></svg>
