<?xml version="1.0" encoding="UTF-8" standalone="no"?>
<!-- Created with Inkscape (http://www.inkscape.org/) -->

<svg
   width="245.34662"
   height="178.51135"
   viewBox="0 0 64.914624 47.231127"
   version="1.1"
   id="svg5"
   xml:space="preserve"
   xmlns:inkscape="http://www.inkscape.org/namespaces/inkscape"
   xmlns:sodipodi="http://sodipodi.sourceforge.net/DTD/sodipodi-0.dtd"
   xmlns="http://www.w3.org/2000/svg"
   xmlns:svg="http://www.w3.org/2000/svg"><sodipodi:namedview
     id="namedview7"
     pagecolor="#ffffff"
     bordercolor="#666666"
     borderopacity="1.0"
     inkscape:showpageshadow="2"
     inkscape:pageopacity="0.0"
     inkscape:pagecheckerboard="0"
     inkscape:deskcolor="#d1d1d1"
     inkscape:document-units="mm"
     showgrid="false" /><defs
     id="defs2" /><g
     inkscape:groupmode="layer"
     id="layer3"
     inkscape:label="Layer 1"
     transform="translate(-21.283801,-49.938017)"><ellipse
       style="display:inline;fill:#58a86e;fill-opacity:1;stroke-width:0.22679"
       id="path806"
       cx="54.135227"
       cy="88.483994"
       rx="32.063202"
       ry="8.6851444"
       inkscape:export-filename="skills.svg"
       inkscape:export-xdpi="43.542854"
       inkscape:export-ydpi="43.542854" /></g><g
     id="g8348"
     transform="matrix(1.4328433,0,0,1.4328433,-44.435928,-88.666584)"><path
       style="fill:#373748;stroke:none;stroke-width:0.264583px;stroke-linecap:butt;stroke-linejoin:miter;stroke-opacity:1"
       d="M 35.62995,87.370367 52.253086,88.801805 44.81885,63.451526 Z"
       id="path6379" /><path
       style="fill:#2c89a0;stroke:none;stroke-width:0.264583px;stroke-linecap:butt;stroke-linejoin:miter;stroke-opacity:1"
       d="m 32.842113,87.139492 -1.8297,-4.709888 4.525187,-5.356344 2.909049,-3.878731 2.67817,-3.832555 2.262595,-3.601681 1.431261,-2.30764 -1.015682,6.001671 -1.154385,5.771922 -1.10821,4.155781 -1.385261,3.601681 -1.10821,1.754663 -1.523785,2.077892 -0.953879,0.639052 z"
       id="path6375"
       sodipodi:nodetypes="ccccccccccccccc" /><path
       style="fill:#2c89a0;stroke:none;stroke-width:0.264583px;stroke-linecap:butt;stroke-linejoin:miter;stroke-opacity:1"
       d="m 44.819454,63.455404 6.331195,10.495246 4.011485,5.200502 4.525185,5.125466 -2.213857,4.982058 -6.513287,-0.562748 -1.616138,-0.540579 -1.616139,-1.154385 -0.784981,-1.523786 -0.784982,-2.724348 -0.646454,-4.47901 -0.415578,-7.157183 -0.265509,-7.480411 z"
       id="path6377"
       sodipodi:nodetypes="cccccccccccccc" /><path
       style="fill:#216778;stroke:none;stroke-width:0.264583px;stroke-linecap:butt;stroke-linejoin:miter;stroke-opacity:1"
       d="m 44.807148,63.478362 11.832597,-1.596799 5.818097,9.050371 2.678171,3.370803 3.093752,3.740205 1.754664,2.031717 -10.346268,4.201959 -4.401094,-4.968682 -4.170704,-5.360167 -1.616491,-2.809536 -1.793326,-2.930047 z"
       id="path6382"
       sodipodi:nodetypes="cccccccccccc" /><path
       style="fill:#004455;stroke:none;stroke-width:0.264583px;stroke-linecap:butt;stroke-linejoin:miter;stroke-opacity:1"
       d="m 57.456226,89.253654 10.681186,-4.977036 1.83328,-4.19916 -10.326746,4.17232 z"
       id="path6384"
       sodipodi:nodetypes="ccccc" /></g><g
     id="g8341"
     transform="matrix(1.4625793,0,0,1.4625793,-49.383066,-89.26305)"><path
       style="fill:#d38d5f;fill-opacity:1;stroke:none;stroke-width:0.264583px;stroke-linecap:butt;stroke-linejoin:miter;stroke-opacity:1"
       d="m 68.824729,79.090642 0.753762,-8.33189 0.980274,0.06217 -0.822456,8.274641 z"
       id="path6392"
       sodipodi:nodetypes="ccccc" /><path
       style="fill:#d38d5f;fill-opacity:1;stroke:none;stroke-width:0.264583px;stroke-linecap:butt;stroke-linejoin:miter;stroke-opacity:1"
       d="m 75.458124,79.202629 0.778611,-8.42422 0.96693,-0.0018 -0.775496,8.477666 z"
       id="path6394"
       sodipodi:nodetypes="ccccc" /><path
       style="fill:#d38d5f;stroke:none;stroke-width:0.264583px;stroke-linecap:butt;stroke-linejoin:miter;stroke-opacity:1"
       d="m 69.083119,87.191942 -0.608027,-0.214123 0.241034,-6.157382 0.62618,-0.153346 z"
       id="path6414-4-5"
       sodipodi:nodetypes="ccccc" /><path
       style="fill:#5aa02c;stroke:none;stroke-width:0.264583px;stroke-linecap:butt;stroke-linejoin:miter;stroke-opacity:1"
       d="m 69.202003,71.113142 -0.421464,4.690994 8.306879,0.166815 0.433405,-4.793551 z"
       id="path6396" /><path
       style="fill:#ff9955;stroke:none;stroke-width:0.264583px;stroke-linecap:butt;stroke-linejoin:miter;stroke-opacity:1"
       d="m 69.944016,80.792003 -0.293644,5.956907 -0.571537,0.441771 0.244852,-6.353767 z"
       id="path6412-3-9"
       sodipodi:nodetypes="ccccc" /><path
       style="fill:none;stroke:none;stroke-width:0.264583px;stroke-linecap:butt;stroke-linejoin:miter;stroke-opacity:1"
       d="M 70.152093,81.254827 Z"
       id="path6398" /><path
       style="fill:#a05a2c;stroke:none;stroke-width:0.264583px;stroke-linecap:butt;stroke-linejoin:miter;stroke-opacity:1"
       d="m 70.297382,82.42426 6.617499,-1.812056 0.07904,-1.003637 -6.598403,1.595335 z"
       id="path6402"
       sodipodi:nodetypes="ccccc" /><path
       style="fill:#d38d5f;stroke:none;stroke-width:0.264583px;stroke-linecap:butt;stroke-linejoin:miter;stroke-opacity:1"
       d="m 63.563909,80.756956 -0.111338,1.224027 0.64509,0.02683 0.106886,-1.217838 z"
       id="path6400-3"
       sodipodi:nodetypes="ccccc" /><path
       style="fill:#a05a2c;stroke:none;stroke-width:0.264583px;stroke-linecap:butt;stroke-linejoin:miter;stroke-opacity:1"
       d="M 64.094931,82.008926 68.714116,81.081661 67.527295,80.941383 64.201338,80.8051 Z"
       id="path6402-8"
       sodipodi:nodetypes="ccccc" /><path
       style="fill:#ff9955;stroke:none;stroke-width:0.264583px;stroke-linecap:butt;stroke-linejoin:miter;stroke-opacity:1"
       d="m 71.86378,81.996055 -0.173755,5.729531 -0.625281,0.354955 0.178706,-5.919685 z"
       id="path6412"
       sodipodi:nodetypes="ccccc" /><path
       style="fill:#d38d5f;stroke:none;stroke-width:0.264583px;stroke-linecap:butt;stroke-linejoin:miter;stroke-opacity:1"
       d="m 71.064894,88.085936 -0.61216,-0.123173 0.174889,-5.640618 0.626179,-0.161613 z"
       id="path6414"
       sodipodi:nodetypes="ccccc" /><path
       style="fill:#ff9955;stroke:none;stroke-width:0.264583px;stroke-linecap:butt;stroke-linejoin:miter;stroke-opacity:1"
       d="m 65.541407,81.710994 -0.285373,5.989979 -0.575671,0.441772 0.286193,-6.312425 z"
       id="path6412-4"
       sodipodi:nodetypes="ccccc" /><path
       style="fill:#d38d5f;stroke:none;stroke-width:0.264583px;stroke-linecap:butt;stroke-linejoin:miter;stroke-opacity:1"
       d="m 69.778762,81.155755 -0.111338,1.224026 0.636822,0.05163 0.115154,-1.242643 z"
       id="path6400"
       sodipodi:nodetypes="ccccc" /><path
       style="fill:#165016;stroke:none;stroke-width:0.264583px;stroke-linecap:butt;stroke-linejoin:miter;stroke-opacity:1"
       d="m 63.072751,80.097897 5.492142,-1.0133 1.030851,-0.0151 5.648439,0.05478 2.049761,0.07235 -6.392335,1.334676 z"
       id="path6386" /><path
       style="fill:#d38d5f;stroke:none;stroke-width:0.264583px;stroke-linecap:butt;stroke-linejoin:miter;stroke-opacity:1"
       d="m 64.68051,88.144007 -0.599758,-0.193453 0.274107,-5.992018 0.613777,-0.132674 z"
       id="path6414-1"
       sodipodi:nodetypes="ccccc" /><path
       style="fill:#ff9955;stroke:none;stroke-width:0.264583px;stroke-linecap:butt;stroke-linejoin:miter;stroke-opacity:1"
       d="m 76.485459,80.727307 -0.205407,5.883288 -0.615128,0.471592 0.208856,-6.193088 z"
       id="path6412-3"
       sodipodi:nodetypes="ccccc" /><path
       style="fill:#d38d5f;stroke:none;stroke-width:0.264583px;stroke-linecap:butt;stroke-linejoin:miter;stroke-opacity:1"
       d="m 75.664245,87.078433 -0.547311,-0.143844 0.157141,-5.876799 0.60371,-0.17205 z"
       id="path6414-4"
       sodipodi:nodetypes="ccccc" /><path
       style="fill:#5aa02c;fill-opacity:1;stroke:none;stroke-width:0.264583px;stroke-linecap:butt;stroke-linejoin:miter;stroke-opacity:1"
       d="m 63.094366,80.087407 -0.07609,0.638268 7.813914,0.508923 0.101382,-0.709972 z"
       id="path6388"
       sodipodi:nodetypes="ccccc" /><path
       style="fill:#71c837;fill-opacity:1;stroke:none;stroke-width:0.264583px;stroke-linecap:butt;stroke-linejoin:miter;stroke-opacity:1"
       d="m 70.90925,80.502526 6.381672,-1.303365 -0.03823,0.498971 -6.414791,1.513406 z"
       id="path6390"
       sodipodi:nodetypes="ccccc" /></g></svg>
