<?xml version="1.0" encoding="UTF-8" standalone="no"?>
<!-- Created with Inkscape (http://www.inkscape.org/) -->

<svg
   width="242.36751"
   height="239.05472"
   viewBox="0 0 64.126401 63.249892"
   version="1.1"
   id="svg5"
   xml:space="preserve"
   sodipodi:docname="travel.svg"
   inkscape:version="1.2 (dc2aedaf03, 2022-05-15)"
   xmlns:inkscape="http://www.inkscape.org/namespaces/inkscape"
   xmlns:sodipodi="http://sodipodi.sourceforge.net/DTD/sodipodi-0.dtd"
   xmlns="http://www.w3.org/2000/svg"
   xmlns:svg="http://www.w3.org/2000/svg"><sodipodi:namedview
     id="namedview7"
     pagecolor="#ffffff"
     bordercolor="#666666"
     borderopacity="1.0"
     inkscape:showpageshadow="2"
     inkscape:pageopacity="0.0"
     inkscape:pagecheckerboard="0"
     inkscape:deskcolor="#d1d1d1"
     inkscape:document-units="mm"
     showgrid="false"
     inkscape:zoom="3.3632467"
     inkscape:cx="121.46002"
     inkscape:cy="170.51975"
     inkscape:window-width="1920"
     inkscape:window-height="991"
     inkscape:window-x="-9"
     inkscape:window-y="-9"
     inkscape:window-maximized="1"
     inkscape:current-layer="layer2" /><defs
     id="defs2" /><ellipse
     style="fill:#750d37;fill-opacity:1;stroke-width:0.22679"
     id="path806"
     cx="32.063202"
     cy="54.564743"
     rx="32.063202"
     ry="8.6851444"
     inkscape:export-filename="travel.svg"
     inkscape:export-xdpi="43.542854"
     inkscape:export-ydpi="43.542854" /><g
     inkscape:groupmode="layer"
     id="layer2"
     inkscape:label="Layer 2"
     transform="translate(-22.072026,-33.919252)"><g
       id="g827"
       transform="matrix(0.7718318,0,0,0.7718318,13.953085,20.874592)"
       style="stroke:none"><path
         style="fill:#ffaaaa;stroke:none;stroke-width:0.236042px;stroke-linecap:butt;stroke-linejoin:miter;stroke-opacity:1"
         d="m 23.494154,85.518445 22.720437,2.79636 0.349546,-39.032542 -22.370893,-1.281665 z"
         id="path756" /><path
         style="fill:#d35f5f;stroke:none;stroke-width:0.236042px;stroke-linecap:butt;stroke-linejoin:miter;stroke-opacity:1"
         d="M 46.214591,88.309701 52.448146,85.227158 52.215117,47.825825 46.547612,49.29131 Z"
         id="path758"
         sodipodi:nodetypes="ccccc" /><path
         style="fill:#ff5555;stroke:none;stroke-width:0.236042px;stroke-linecap:butt;stroke-linejoin:miter;stroke-opacity:1"
         d="m 24.199155,48.008076 5.761586,-1.813463 22.249672,1.640259 -5.63132,1.453301 z"
         id="path760"
         sodipodi:nodetypes="ccccc" /><path
         style="fill:#c8beb7;stroke:none;stroke-width:0.236042px;stroke-linecap:butt;stroke-linejoin:miter;stroke-opacity:1"
         d="M 34.796116,47.476278 34.621343,36.979673 h 1.281665 l 0.129903,10.624943 z"
         id="path762"
         sodipodi:nodetypes="ccccc" /><path
         style="fill:#c8beb7;stroke:none;stroke-width:0.236042px;stroke-linecap:butt;stroke-linejoin:miter;stroke-opacity:1"
         d="M 40.243025,47.726531 40.068252,37.065406 h 1.281665 l 0.174772,10.864245 z"
         id="path762-9"
         sodipodi:nodetypes="ccccc" /><path
         style="fill:#280b0b;stroke:none;stroke-width:0.236042px;stroke-linecap:butt;stroke-linejoin:miter;stroke-opacity:1"
         d="m 35.663705,36.994629 -0.02991,1.295053 4.643233,0.08503 -0.02991,-1.281666 z"
         id="path788"
         sodipodi:nodetypes="ccccc" /><path
         style="fill:#c8beb7;stroke:none;stroke-width:0.236042px;stroke-linecap:butt;stroke-linejoin:miter;stroke-opacity:1"
         d="m 48.602816,66.3666 0.162955,-2.509054 1.609981,-0.506225 0.63613,0.536138 0.04487,0.800652 -0.537707,0.231461 -0.104695,-0.788831 -1.043931,0.27947 -0.121217,1.865082 z"
         id="path790"
         sodipodi:nodetypes="cccccccccc" /><path
         style="fill:#c8beb7;stroke:none;stroke-width:0.236042px;stroke-linecap:butt;stroke-linejoin:miter;stroke-opacity:1"
         d="m 48.657937,68.851169 0.55423,-0.156679 0.203118,1.554862 1.255614,-0.336159 0.06224,-0.714047 0.479449,-0.09999 -0.0016,1.371407 -1.867377,0.528297 -0.551094,-0.333021 z"
         id="path792"
         sodipodi:nodetypes="cccccccccc" /><path
         style="fill:#280b0b;stroke:none;stroke-width:0.236042px;stroke-linecap:butt;stroke-linejoin:miter;stroke-opacity:1"
         d="m 50.347405,64.947917 0.873865,-0.349545 0.174772,4.485827 -0.990379,0.233031 z"
         id="path794" /></g><path
       style="fill:#ffb380;stroke:none;stroke-width:0.203179px;stroke-linecap:butt;stroke-linejoin:miter;stroke-opacity:1"
       d="m 54.982598,39.739596 8.677142,0.85613 0.06146,4.412904 -9.096002,-1.392519 -1.572939,-2.195594 z"
       id="path802"
       sodipodi:nodetypes="cccccc" /><path
       style="fill:#c87137;stroke:none;stroke-width:0.216673px;stroke-linecap:butt;stroke-linejoin:miter;stroke-opacity:1"
       d="m 63.841626,88.832994 1.92518,0.427819 -0.106955,-54.546803 -2.139089,-0.427818 z"
       id="path796" /><path
       style="fill:#aa4400;stroke:none;stroke-width:0.216673px;stroke-linecap:butt;stroke-linejoin:miter;stroke-opacity:1"
       d="m 65.760931,89.265321 0.854008,-0.6122 -0.07563,-54.301095 -0.881968,0.365896 z"
       id="path798"
       sodipodi:nodetypes="ccccc" /><path
       style="fill:#d45500;stroke:none;stroke-width:0.216673px;stroke-linecap:butt;stroke-linejoin:miter;stroke-opacity:1"
       d="m 63.515386,34.289354 0.855316,-0.370101 2.167774,0.435526 -0.879092,0.369266 z"
       id="path800"
       sodipodi:nodetypes="ccccc" /><path
       style="fill:#ff7f2a;stroke:none;stroke-width:0.216673px;stroke-linecap:butt;stroke-linejoin:miter;stroke-opacity:1"
       d="M 66.16117,46.717246 66.123357,51.4062 76.333174,53.523791 79.358303,51.4062 76.711316,48.683582 Z"
       id="path804" /></g></svg>
